<?xml version="1.0" encoding="utf-8"?>
<!-- Generator: Adobe Illustrator 21.0.0, SVG Export Plug-In . SVG Version: 6.00 Build 0)  -->
<svg version="1.1" id="Capa_1" xmlns="http://www.w3.org/2000/svg" xmlns:xlink="http://www.w3.org/1999/xlink" x="0px" y="0px"
	 viewBox="0 0 308 93" style="enable-background:new 0 0 308 93;" xml:space="preserve">
<style type="text/css">
	.st0{fill:#FFFFFF;}
</style>
<g>
	<path class="st0" d="M64.2,66.5l3.5-0.6V42.7L64.2,42v-9.2h33.4v15.3h-9.5l-0.9-4.3h-6.7v5.5h8.1v9.8h-8.1v5.5h7.4l0.9-4.3h9.5
		v15.3H64.2V66.5z"/>
	<path class="st0" d="M103.2,32.9h16.3l7.8,17.9h0.6V32.9h16.3V42l-3.5,0.6v33h-12.8l-7.8-17.9h-0.6v17.9h-16.3v-9.2l3.5-0.6V42.7
		l-3.5-0.6V32.9z"/>
	<path class="st0" d="M183.6,65.9l3.5,0.6v9.2h-19.2v-9.2l3.5-0.6l-0.5-2.1h-9.8l-0.5,2.1l3.5,0.6v9.2h-19.2v-9.2l3.5-0.6l7-23.2
		l-3.5-0.6v-9.2h21.8L183.6,65.9z M163.5,54.6h5l-2.2-8.5h-0.6L163.5,54.6z"/>
	<path class="st0" d="M189.5,32.9h24.4c4,0,7,1,9.1,3.1c2.1,2.1,3.1,5.1,3.1,9.1v18.3c0,4-1,7-3.1,9.1c-2.1,2.1-5.1,3.1-9.1,3.1
		h-24.4v-9.2l3.5-0.6V42.7l-3.5-0.6V32.9z M213.3,45.7c0-0.9-0.2-1.6-0.5-1.9c-0.3-0.3-1-0.5-1.9-0.5h-5v22h5c0.9,0,1.6-0.2,1.9-0.5
		c0.3-0.3,0.5-1,0.5-1.9V45.7z"/>
	<path class="st0" d="M229.8,44.9c0-3.9,1-6.9,3.1-9c2.1-2,5.1-3.1,9.1-3.1h10.7c4,0,7,1,9.1,3.1c2.1,2,3.1,5,3.1,9v18.7
		c0,3.9-1,6.9-3.1,9c-2.1,2-5.1,3.1-9.1,3.1H242c-4,0-7-1-9.1-3.1c-2.1-2-3.1-5-3.1-9V44.9z M252.2,45.6c0-0.9-0.2-1.5-0.5-1.9
		c-0.3-0.3-1-0.5-1.9-0.5h-4.6c-0.9,0-1.6,0.2-1.9,0.5c-0.3,0.3-0.5,1-0.5,1.9v17.2c0,0.9,0.2,1.5,0.5,1.9c0.3,0.3,1,0.5,1.9,0.5
		h4.6c0.9,0,1.6-0.2,1.9-0.5c0.3-0.3,0.5-1,0.5-1.9V45.6z"/>
	<path class="st0" d="M278.4,61l0.9,3.7h6c0.9,0,1.6-0.2,1.9-0.5c0.3-0.3,0.5-1,0.5-1.9v-0.6c0-0.9-0.2-1.6-0.5-1.9
		c-0.3-0.3-1-0.5-1.9-0.5h-4.9c-4,0-7-1-9.1-3.1c-2.1-2.1-3.1-5.1-3.1-9.1v-1.8c0-4,1-7,3.1-9.1c2.1-2.1,5.1-3.1,9.1-3.1h18v14.7
		H289l-0.9-3.7h-4.6c-0.9,0-1.6,0.2-1.9,0.5c-0.3,0.3-0.5,1-0.5,1.9v0.6c0,0.9,0.2,1.6,0.5,1.9c0.3,0.3,1,0.5,1.9,0.5h4.9
		c4,0,7,1,9.1,3.1c2.1,2.1,3.1,5.1,3.1,9.1v1.8c0,4-1,7-3.1,9.1c-2.1,2.1-5.1,3.1-9.1,3.1h-19.5V61H278.4z"/>
	<path class="st0" d="M41.4,90.3l8.2-33l0.4-0.1c1-0.1,2-0.3,2.8-0.5l0.2,0v0c1.7-0.5,3.2-1.3,4.3-2.5c2.1-2.1,3.1-5.1,3.1-9.1v-1.8
		c0-4-1-7-3.1-9.1c-1.5-1.5-3.4-2.4-5.8-2.8l-0.2,0c-0.3-0.1-0.7-0.1-1-0.1c-0.3-0.1-0.5-0.2-0.7-0.4c-0.3-0.3-0.5-1-0.5-1.9v-0.6
		c0-0.9,0.2-1.6,0.5-1.9c0.3-0.3,1-0.5,1.9-0.5h14.9V2.7h-9.4l-0.9,12.1h-7.6c-4,0-7,1-9.1,3.1C37.5,20,36.4,23,36.4,27v15h6.9h0.9
		h1.1c0.9,0,1.6,0.2,1.9,0.5c0.3,0.3,0.5,1,0.5,1.9v0.6c0,0.9-0.2,1.6-0.5,1.9c-0.3,0.3-1,0.5-1.9,0.5h-8.9l-2.9,25.6h-0.3H33
		l-2.9-25.6h-8.9c-0.9,0-1.6-0.2-1.9-0.5c-0.3-0.3-0.5-1-0.5-1.9v-0.6c0-0.9,0.2-1.6,0.5-1.9c0.3-0.3,1-0.5,1.9-0.5h1.1h0.9h6.9V27
		c0-4-1-7-3.1-9.1c-2.1-2.1-5.1-3.1-9.1-3.1h-7.6L9.4,2.7H0v23.1h14.9c0.9,0,1.6,0.2,1.9,0.5c0.3,0.3,0.5,1,0.5,1.9v0.6
		c0,0.9-0.2,1.6-0.5,1.9c-0.2,0.2-0.4,0.3-0.7,0.4c-0.3,0-0.7,0.1-1,0.1l-0.2,0c-2.4,0.4-4.4,1.4-5.8,2.8C7,36.2,6,39.3,6,43.3v1.8
		c0,4,1,7,3.1,9.1c1.1,1.2,2.6,2,4.3,2.5v0l0.2,0c0.9,0.2,1.8,0.4,2.8,0.5l0.4,0.1l8.2,33H41.4z"/>
	<g>
		<path class="st0" d="M308,38.4c0,0.9-0.5,1.4-1.4,1.4h-4.2c-0.9,0-1.4-0.5-1.4-1.4v-4.2c0-0.9,0.5-1.4,1.4-1.4h4.2
			c0.9,0,1.4,0.5,1.4,1.4V38.4z M306.9,34.3c0-0.3-0.1-0.4-0.4-0.4h-4c-0.3,0-0.4,0.1-0.4,0.4v4c0,0.3,0.1,0.4,0.4,0.4h4
			c0.3,0,0.4-0.1,0.4-0.4V34.3z M304.7,36.8h-0.4V38h-1.2v-0.7l0.3-0.1v-1.7l-0.3-0.1v-0.7h1.7c0.7,0,1.1,0.4,1.1,1.1
			c0,0.6-0.4,0.8-0.4,0.8v0l0.2,0.5l0.3,0.1V38h-0.9L304.7,36.8z M304.7,35.5h-0.4v0.6h0.4c0.2,0,0.3-0.1,0.3-0.3
			C305,35.6,304.9,35.5,304.7,35.5z"/>
	</g>
</g>
</svg>
